<svg xmlns="http://www.w3.org/2000/svg" xmlns:xlink="http://www.w3.org/1999/xlink" viewBox="0 0 322.17 302.18"><defs><style>.cls-1{stroke:#1e1f1d;stroke-miterlimit:10;fill:url(#linear-gradient);}</style><linearGradient id="linear-gradient" x1="328.24" y1="291.46" x2="-18.35" y2="13.33" gradientUnits="userSpaceOnUse"><stop offset="0" stop-color="#3dad55"/><stop offset="1" stop-color="#3dad55"/></linearGradient></defs><g id="Layer_2" data-name="Layer 2"><g id="Layer_1-2" data-name="Layer 1"><path class="cls-1" d="M22.69,301.68a20,20,0,0,1-6.33-1C10.44,298.67.5,292.18.5,271V47.83A47.38,47.38,0,0,1,47.83.5H274.34a47.38,47.38,0,0,1,47.33,47.33V210.92a47.38,47.38,0,0,1-47.33,47.32H139.45a47.38,47.38,0,0,1-47.33-47.32V93.73c0-13.93,5.69-25.21,15.62-30.94s22.53-5,34.6,1.95l69.27,40c12.07,7,19,17.54,19,29s-6.92,22-19,29l-42.35,24.45a14.56,14.56,0,1,1-14.57-25.22l42.35-24.45c2.89-1.67,4.06-3.16,4.37-3.77-.31-.61-1.48-2.11-4.37-3.77L127.78,90c-2.89-1.67-4.77-1.94-5.45-1.9-.38.58-1.08,2.34-1.08,5.67V210.92a18.22,18.22,0,0,0,18.2,18.2H274.34a18.22,18.22,0,0,0,18.2-18.2V47.83a18.22,18.22,0,0,0-18.2-18.21H47.83a18.22,18.22,0,0,0-18.2,18.21V261l19.67-26.1a14.56,14.56,0,1,1,23.26,17.53L46.85,286.56C37.72,298.67,29.05,301.67,22.69,301.68Z"/></g></g></svg>