<svg width="117" height="150" viewBox="0 0 117 150" fill="none" xmlns="http://www.w3.org/2000/svg">
<path d="M0.280563 101.14C0.280563 88.0267 0.280563 74.9167 0.280563 61.81C0.280563 58.64 0.100563 55.18 3.56056 53.56C6.77056 52.06 9.67056 53.56 12.4006 55.38C20.8406 60.89 25.1306 68.72 25.4006 78.72C25.5606 84.72 25.3306 90.72 25.5006 96.64C25.7006 103.33 29.2706 105.57 34.9706 102.04C46.0006 95.23 56.8106 88.1 67.4706 80.76C72.7406 77.13 72.2106 72.03 66.2006 67.85C57.7506 62 49.0506 56.46 40.4606 50.8C30.6106 44.31 20.7006 37.93 10.9306 31.33C2.70056 25.75 -1.56944 14.62 0.530563 5C1.44056 0.909995 4.28056 -0.920005 8.29056 0.449995C10.4605 1.27119 12.5197 2.35958 14.4206 3.69C45.9606 24.3167 77.4839 44.9833 108.991 65.69C110.119 66.3903 111.21 67.148 112.261 67.96C117.261 71.96 117.441 76.78 112.761 81.03C111.122 82.4329 109.376 83.7067 107.541 84.84C76.3139 105.327 45.0739 125.807 13.8206 146.28C12.8206 146.91 11.8806 147.56 10.8206 148.11C4.56056 151.5 0.420563 149.2 0.340563 142C0.200563 128.39 0.340563 114.78 0.340563 101.17L0.280563 101.14Z" fill="#3DAD55"/>
<path d="M49.1304 85.996C46.106 85.9722 43.2136 84.754 41.0834 82.607C38.9532 80.4599 37.7579 77.5579 37.758 74.5334C37.8637 71.504 39.1486 68.6356 41.3387 66.5398C43.5288 64.4441 46.4509 63.2867 49.4821 63.3144C55.7139 63.4046 61.0349 68.8247 60.8635 74.9032C60.7739 77.9285 59.4885 80.7949 57.2892 82.8742C55.0899 84.9535 52.156 86.0761 49.1304 85.996Z" fill="#3DAD55"/>
<path d="M17.2006 42.66C20.4406 43.01 22.7606 44.72 22.7906 48.22C22.8366 48.9298 22.7387 49.6416 22.5028 50.3126C22.2669 50.9837 21.8979 51.6001 21.4178 52.125C20.9378 52.6499 20.3566 53.0723 19.7093 53.3671C19.0619 53.6618 18.3616 53.8226 17.6506 53.84C14.2106 54.1 11.9406 51.96 11.7106 48.56C11.4806 45.16 13.6006 43.14 17.2006 42.66Z" fill="#3DAD55"/>
</svg>
