<svg xmlns="http://www.w3.org/2000/svg" viewBox="0 0 116.13 149.65"><g id="Layer_2" data-name="Layer 2"><g id="Layer_1-2" data-name="Layer 1"><path id="play_button" d="M.28,101.14q0-19.67,0-39.33c0-3.17-.18-6.63,3.28-8.25,3.21-1.5,6.11,0,8.84,1.82,8.44,5.51,12.73,13.34,13,23.34.16,6-.07,12,.1,17.92.2,6.69,3.77,8.93,9.47,5.4C46,95.23,56.81,88.1,67.47,80.76c5.27-3.63,4.74-8.73-1.27-12.91C57.75,62,49.05,56.46,40.46,50.8,30.61,44.31,20.7,37.93,10.93,31.33,2.7,25.75-1.57,14.62.53,5,1.44.91,4.28-.92,8.29.45a27.93,27.93,0,0,1,6.13,3.24q47.31,30.94,94.57,62a38.87,38.87,0,0,1,3.27,2.27c5,4,5.18,8.82.5,13.07a41.77,41.77,0,0,1-5.22,3.81Q60.7,115.57,13.82,146.28c-1,.63-1.94,1.28-3,1.83C4.56,151.5.42,149.2.34,142c-.14-13.61,0-27.22,0-40.83Z"/><path id="large_bubble" d="M49.11,87.23A12.71,12.71,0,0,1,36.5,74.52a12.89,12.89,0,0,1,13-12.44c6.91.1,12.81,6.11,12.62,12.85A12.68,12.68,0,0,1,49.11,87.23Z"/><path id="small_bubble" d="M17.2,42.66c3.24.35,5.56,2.06,5.59,5.56a5.28,5.28,0,0,1-5.14,5.62c-3.44.26-5.71-1.88-5.94-5.28S13.6,43.14,17.2,42.66Z"/></g></g></svg>